<svg xmlns="http://www.w3.org/2000/svg" xmlns:xlink="http://www.w3.org/1999/xlink" viewBox="0 0 759.18 74.79"><defs><style>.cls-1{fill:#231815;}.cls-2{fill:url(#linear-gradient);}</style><linearGradient id="linear-gradient" y1="37.39" x2="150.74" y2="37.39" gradientUnits="userSpaceOnUse"><stop offset="0" stop-color="#a81018"/><stop offset="1" stop-color="#c61019"/></linearGradient></defs><title>logo-small</title><g id="レイヤー_2" data-name="レイヤー 2"><g id="オリジナルロゴ"><path class="cls-1" d="M206.38,55.3l-5.78.15a14.91,14.91,0,0,0-3.52.3,3.44,3.44,0,0,1-.74.13c-.45,0-.66-.18-.62-.54a1.25,1.25,0,0,1,.28-.47,16.47,16.47,0,0,0,1.61-2.5l4.34-7.21L208,35q5.33-9,6.48-12.06l.74-2a1.8,1.8,0,0,0,.09-.45q-.06-.73-2.14-.73l-5.3-.17-1.89.17q-6.72.84-7.53,6a.69.69,0,0,1-.75.68q-.81,0-.81-1.88a10.21,10.21,0,0,1,.28-2.11,8.6,8.6,0,0,0,.25-1.91l0-1.86.15-.73c.08-.56.35-.84.8-.84a7.48,7.48,0,0,1,.83.05q1.58.19,10.17.19,3.15,0,5.38-.2l4.95-.44q3-.26,4.48-.26c1.07,0,1.61.26,1.61.79a4.76,4.76,0,0,1-.93,1.91q-2.17,3.32-6.59,11.29l-3.81,6.76-4.05,7.2q-2.26,4-2.63,4.67-1.05,2-1.49,2.65a1.13,1.13,0,0,0-.22.59q0,.71,1.67.71l3.86.08,2.84-.31q7.38-1,11.18-6c.48-.64.81-.95,1-.93s.47.33.47.92a9.27,9.27,0,0,1-2.49,6.53,7.93,7.93,0,0,1-6,2.69,14.52,14.52,0,0,1-1.64-.09l-3.77-.35Q209.74,55.31,206.38,55.3Z"/><path class="cls-1" d="M241.63,31.66a11.32,11.32,0,0,1,8.26,3.43q2.91,2.9,2.91,5.8,0,1.1-1.67,1.1l-1.42-.05H249l-1.88,0-5.83.08-3.05,0-1,0a2.1,2.1,0,0,0-1.14.2,1.29,1.29,0,0,0-.34,1,9.31,9.31,0,0,0,2.66,6.55,8.18,8.18,0,0,0,6.14,2.85,9.06,9.06,0,0,0,6.25-2.08l1-.88a.79.79,0,0,1,.53-.23q.69,0,.69.59,0,.82-2.38,2.74a14.13,14.13,0,0,1-9,3.38,11.84,11.84,0,0,1-8.71-3.34,11.62,11.62,0,0,1-3.37-8.62,12.31,12.31,0,0,1,3.6-8.85A11.48,11.48,0,0,1,241.63,31.66Zm-.85,1.47A4.7,4.7,0,0,0,237.11,35a6.63,6.63,0,0,0-1.57,4.41c0,.54.15.86.45,1a9.78,9.78,0,0,0,2.42.17c.68,0,1.4,0,2.16-.06q2.78-.11,3.21-.11c1.81,0,2.72-.5,2.72-1.51a6,6,0,0,0-5.71-5.74Z"/><path class="cls-1" d="M271.2,42a8.71,8.71,0,0,0,.34-2.18,6.87,6.87,0,0,0-1.48-4.56,4.75,4.75,0,0,0-3.8-1.77q-3,0-3,2.2a5.08,5.08,0,0,0,.06.8l.09.52q0,1.88-4.79,1.88-1.25,0-1.18-1a2,2,0,0,1,.15-.62c.06-.2.12-.44.19-.72a4.21,4.21,0,0,1,1.88-2.75,14.17,14.17,0,0,1,7.91-2.13q5.34,0,8,2.25,2,1.71,2,5.95c0,1.42-.06,3.21-.18,5.36q-.19,3.7-.19,4.94,0,2.89,2.53,2.89a3.37,3.37,0,0,0,1.33-.2,2.25,2.25,0,0,1,.71-.2c.29,0,.43.13.43.4q0,.72-1.2,1.35l-1.21.55-1.05.55a5.65,5.65,0,0,1-2.44.53q-2.72,0-4.57-3.19-5.75,3.35-9.54,3.36a5.79,5.79,0,0,1-4.11-1.38,5,5,0,0,1-1.48-3.84,6.78,6.78,0,0,1,4.25-6.5Q263.52,43.35,271.2,42Zm-.63,1.64a7.28,7.28,0,0,0-5.06,1.72,5.3,5.3,0,0,0-2.4,4.14q0,3.71,3.27,3.71a6.94,6.94,0,0,0,3.54-.87,2.4,2.4,0,0,0,1.14-1.55,15.05,15.05,0,0,0,.31-3.63l0-2.17v-.59l-.19-.62A1.36,1.36,0,0,0,270.57,43.69Z"/><path class="cls-1" d="M293.2,22.92v25l0,.93a6.42,6.42,0,0,0,.87,3.88,5.34,5.34,0,0,0,3.41,1.48,2.65,2.65,0,0,1,.95.23c.09.08.14.26.14.55q0,.69-.62.69a9.1,9.1,0,0,1-1.09-.11,40.81,40.81,0,0,0-6.12-.39,29.22,29.22,0,0,0-5.69.38,3.81,3.81,0,0,1-.71.11c-.44,0-.65-.24-.65-.73q0-.37.77-.66a3.55,3.55,0,0,0,2.33-3.7l.06-1.64,0-.76V25.38a12.53,12.53,0,0,0-.66-5,2.49,2.49,0,0,0-2.45-1.33c-.6,0-.89-.25-.89-.75a.6.6,0,0,1,.34-.6,11.12,11.12,0,0,1,1.87-.45,22.66,22.66,0,0,0,6.37-2.05l1-.56a1.62,1.62,0,0,1,.55-.17c.31,0,.46.17.46.56q0,.31-.06,1.41Q293.2,20.3,293.2,22.92Z"/><path class="cls-1" d="M338.06,16.28a21.37,21.37,0,0,1,10.07,2.26l2,1.07a2.33,2.33,0,0,0,1.11.34,1.05,1.05,0,0,0,.93-.45l.65-.87a.65.65,0,0,1,.57-.22q1,0,1,1.83l0,2.06v2.57l.25,2.14.28,1.27a8.7,8.7,0,0,1,.18,1.66c0,.72-.28,1.07-.84,1.07q-.48,0-.63-.68A12,12,0,0,0,352,27a21.65,21.65,0,0,0-2.81-3.51q-5.39-5.29-12-5.29a11.83,11.83,0,0,0-9.52,4.37Q324,27,324,33.95q0,9.11,6,14.53a14.36,14.36,0,0,0,9.79,4,18.39,18.39,0,0,0,6.63-1.36,15.76,15.76,0,0,0,5.52-3.38l2-2a1.29,1.29,0,0,1,.82-.48c.38,0,.57.19.57.62q0,1.15-2.44,3.69a21.18,21.18,0,0,1-15.81,6.58q-9.1,0-14.77-5.29a17.94,17.94,0,0,1-5.68-13.76,20.79,20.79,0,0,1,2.13-9.09,20,20,0,0,1,5.69-7.23A21.51,21.51,0,0,1,338.06,16.28Z"/><path class="cls-1" d="M373.49,31.74a14,14,0,0,1,9.65,3.36,10.91,10.91,0,0,1,3.8,8.55,11.41,11.41,0,0,1-4.13,9,15.09,15.09,0,0,1-10.28,3.6,14.2,14.2,0,0,1-9.63-3.33,10.62,10.62,0,0,1-3.85-8.38,11.61,11.61,0,0,1,4.22-9A14.91,14.91,0,0,1,373.49,31.74Zm-1.62,1.55a5.71,5.71,0,0,0-4.77,2.29,9.86,9.86,0,0,0-1.76,6.17,15.19,15.19,0,0,0,2.72,9.1q2.72,3.8,6.56,3.8a6,6,0,0,0,4.75-2.16,8.29,8.29,0,0,0,1.84-5.57,16.64,16.64,0,0,0-2.72-9.65Q375.78,33.29,371.88,33.29Z"/><path class="cls-1" d="M435.94,42.14V50a4.64,4.64,0,0,0,.75,3,4.45,4.45,0,0,0,2.91,1.08c.72.1,1.08.36,1.08.79s-.31.76-.94.76a36.45,36.45,0,0,1-4.42-.5,21.06,21.06,0,0,0-2.68-.23,26.55,26.55,0,0,0-4,.43,8.8,8.8,0,0,1-1.28.14.5.5,0,0,1-.56-.57c0-.27.22-.51.65-.74A4.68,4.68,0,0,0,429.28,53a3.21,3.21,0,0,0,.39-1.81l0-1.35V42.16q0-3.85-1.41-5.65a5.26,5.26,0,0,0-4.41-1.8A6,6,0,0,0,420,35.89a3.68,3.68,0,0,0-1.49,3V49a6.11,6.11,0,0,0,.88,3.8,4.71,4.71,0,0,0,3.29,1.29c.76.06,1.15.3,1.15.73s-.38.82-1.15.82a38.14,38.14,0,0,1-4.42-.42A28,28,0,0,0,415,55a25,25,0,0,0-3.33.35,13.23,13.23,0,0,1-1.4.14c-.56,0-.84-.19-.84-.63a.69.69,0,0,1,.49-.68,3.86,3.86,0,0,0,1.87-1.25,4.33,4.33,0,0,0,.45-2.28l0-1.18V42.22q0-3.83-1.33-5.63a4.83,4.83,0,0,0-4.15-1.79,5.9,5.9,0,0,0-4,1.4,4.51,4.51,0,0,0-1.6,3.54V49.89a3.78,3.78,0,0,0,.84,2.81,8.4,8.4,0,0,0,3.57,1.4c.64.13,1,.38,1,.74s-.33.65-1.06.65c-.52,0-1.11,0-1.78-.08l-2.81-.26q-1.78-.15-3.09-.15a19.25,19.25,0,0,0-3.71.34,6.71,6.71,0,0,1-1.25.15c-.58,0-.87-.23-.87-.7,0-.25.2-.46.59-.61a3.75,3.75,0,0,0,1.74-1.3,4,4,0,0,0,.5-2.17l0-1.49v-10c0-1.66-.2-2.72-.59-3.2s-1.3-.7-2.72-.7c-.52,0-.78-.2-.78-.6s.52-.78,1.56-1l2.52-.7,1.78-.51a14.36,14.36,0,0,0,3.55-1.65.82.82,0,0,1,.44-.17q.5,0,.5.62l0,.71-.09,1.89c0,.21,0,.42,0,.65,0,.73.18,1.11.53,1.12a.67.67,0,0,0,.43-.25l1.28-1.33A8.76,8.76,0,0,1,414,32.71a6.22,6.22,0,0,1,2.88,2.76c.25.6.43.9.53.9s.31-.19.62-.56a11.53,11.53,0,0,1,4-3.17,10.61,10.61,0,0,1,4.77-1.2Q435.94,31.44,435.94,42.14Z"/><path class="cls-1" d="M488.1,42.14V50a4.64,4.64,0,0,0,.75,3,4.45,4.45,0,0,0,2.91,1.08c.72.1,1.08.36,1.08.79s-.31.76-.94.76a36.44,36.44,0,0,1-4.42-.5,21.05,21.05,0,0,0-2.68-.23,26.55,26.55,0,0,0-4,.43,8.77,8.77,0,0,1-1.28.14.5.5,0,0,1-.56-.57c0-.27.22-.51.66-.74A4.68,4.68,0,0,0,481.44,53a3.2,3.2,0,0,0,.39-1.81l0-1.35V42.16q0-3.85-1.41-5.65a5.26,5.26,0,0,0-4.42-1.8,6,6,0,0,0-3.81,1.18,3.68,3.68,0,0,0-1.49,3V49a6.11,6.11,0,0,0,.88,3.8,4.71,4.71,0,0,0,3.29,1.29c.76.06,1.15.3,1.15.73s-.38.82-1.15.82a38.14,38.14,0,0,1-4.42-.42,28,28,0,0,0-3.26-.24,25,25,0,0,0-3.33.35,13.21,13.21,0,0,1-1.4.14c-.56,0-.84-.19-.84-.63a.69.69,0,0,1,.49-.68A3.86,3.86,0,0,0,464,52.94a4.33,4.33,0,0,0,.45-2.28l0-1.18V42.22q0-3.83-1.33-5.63a4.83,4.83,0,0,0-4.15-1.79,5.9,5.9,0,0,0-4,1.4,4.51,4.51,0,0,0-1.59,3.54V49.89a3.78,3.78,0,0,0,.84,2.81,8.4,8.4,0,0,0,3.57,1.4c.64.13,1,.38,1,.74s-.33.65-1.06.65c-.52,0-1.11,0-1.78-.08L453,55.16q-1.78-.15-3.08-.15a19.26,19.26,0,0,0-3.71.34,6.71,6.71,0,0,1-1.25.15c-.58,0-.87-.23-.87-.7,0-.25.2-.46.59-.61a3.75,3.75,0,0,0,1.74-1.3,4,4,0,0,0,.5-2.17l0-1.49v-10c0-1.66-.2-2.72-.59-3.2s-1.3-.7-2.72-.7c-.52,0-.78-.2-.78-.6s.52-.78,1.56-1l2.52-.7,1.78-.51a14.36,14.36,0,0,0,3.55-1.65.82.82,0,0,1,.44-.17c.33,0,.5.19.5.62l0,.71-.09,1.89c0,.21,0,.42,0,.65,0,.73.18,1.11.53,1.12a.67.67,0,0,0,.43-.25l1.28-1.33a8.76,8.76,0,0,1,10.85-1.41A6.22,6.22,0,0,1,469,35.47c.25.6.43.9.53.9s.31-.19.62-.56a11.53,11.53,0,0,1,4-3.17,10.61,10.61,0,0,1,4.77-1.2Q488.09,31.44,488.1,42.14Z"/><path class="cls-1" d="M522.72,32V49.42c0,1.79.16,2.9.49,3.32s1.21.63,2.64.63l.71,0a1.87,1.87,0,0,1,.55.06.66.66,0,0,1,.52.65q0,1-2.1,1h-1.48c-.84,0-1.5,0-2,.05a28.33,28.33,0,0,0-4.38.68,2.12,2.12,0,0,1-.55.08c-.45,0-.68-.34-.68-1a6.22,6.22,0,0,1,.06-.95c0-.37.06-.65.06-.84,0-.56-.14-.84-.4-.86-.1,0-.27.11-.49.33l-1.11,1a9.69,9.69,0,0,1-6.84,2.65q-4.58,0-6.9-2.29t-2.32-6.81q0-6,.25-10.33c0-.52,0-1,0-1.34a1.8,1.8,0,0,0-1.83-2l-1.24-.08c-.58,0-.85-.3-.81-.79s.34-.62.95-.74a21.32,21.32,0,0,1,3.54-.19,15,15,0,0,0,4.33-.57,5.52,5.52,0,0,1,1.31-.22c.35,0,.53.21.53.64s0,1-.06,1.54q-.28,3-.28,10.4,0,5.72,1.13,7.64T510.88,53a5,5,0,0,0,5.54-5.59V36.89q0-2.38-.48-2.93t-2.73-.8c-.64-.06-1-.28-1-.68q0-.88,1.87-.87a28.06,28.06,0,0,0,7.53-.68,2.11,2.11,0,0,1,.66-.14c.29,0,.44.17.44.56Z"/><path class="cls-1" d="M558.6,43.64v5.68a9.4,9.4,0,0,0,.21,2.48,2.68,2.68,0,0,0,1,1.25,5.65,5.65,0,0,0,2.84,1q1,.11,1,.69,0,.87-2.2.87a11,11,0,0,1-1.33-.12l-2-.23q-1.37-.14-2.14-.14a24.52,24.52,0,0,0-4.71.36,7,7,0,0,1-1.24.13q-.68,0-.68-.61c0-.3.24-.53.72-.7a2.89,2.89,0,0,0,1.84-1.32,7.11,7.11,0,0,0,.47-3V43.26a9.93,9.93,0,0,0-1.67-6.06A5.37,5.37,0,0,0,546.08,35a6.37,6.37,0,0,0-4.15,1.29,4.1,4.1,0,0,0-1.58,3.34v9.3a5.46,5.46,0,0,0,1.07,3.75A5.25,5.25,0,0,0,545,54c.58.06.87.28.87.66,0,.54-.36.81-1.09.81s-1.51,0-2.46-.13q-3.52-.36-4.86-.36a31.12,31.12,0,0,0-4.17.33,12.5,12.5,0,0,1-1.53.16c-.52,0-.78-.19-.78-.57s.18-.45.53-.57a4.08,4.08,0,0,0,2-1.17,4.39,4.39,0,0,0,.44-2.32l0-.93V40l0-1.1a6.11,6.11,0,0,0-.45-2.8,1.75,1.75,0,0,0-1.65-.77H530.5a.6.6,0,0,1-.46-.17.53.53,0,0,1-.16-.42.75.75,0,0,1,.47-.74,21.33,21.33,0,0,1,2.75-.71,20.08,20.08,0,0,0,6.52-2.45.62.62,0,0,1,.38-.17q.35,0,.35.53l-.09,1.4,0,1.6.19,1.07a.48.48,0,0,0,.4.37c.16,0,.49-.23,1-.76a9.56,9.56,0,0,1,7.47-3.15q5,0,7.17,2.76T558.6,43.64Z"/><path class="cls-1" d="M576.21,32.89V48.82q0,2.87.95,4t3.51,1.27q1,.06,1,.65t-2.45.74q-.31,0-1.33-.09l-2.33-.23Q573.65,55,573,55a35,35,0,0,0-4.44.38,7.06,7.06,0,0,1-1.06.11q-.65,0-.65-.56a.64.64,0,0,1,.4-.59l1-.47a2.58,2.58,0,0,0,1.15-1.45,6.25,6.25,0,0,0,.47-2.4l0-1.17V39.36a6.32,6.32,0,0,0-.51-3,2,2,0,0,0-1.83-.84h-.71a1.08,1.08,0,0,1-.8-.23.66.66,0,0,1-.09-.4q0-.71,1.9-1.09A19.89,19.89,0,0,0,575.31,31a1.2,1.2,0,0,1,.53-.2c.29,0,.43.2.43.53l0,.25C576.22,31.79,576.21,32.22,576.21,32.89Zm-3.34-15.3q.64,0,2.3,1.91L576.45,21a1.74,1.74,0,0,1,.49,1c0,.45-.54,1.3-1.68,2.55s-1.93,1.88-2.36,1.88a1.25,1.25,0,0,1-.83-.34l-1.44-1.6-1.35-1.4a1.67,1.67,0,0,1-.52-1q0-.56,1.81-2.55T572.87,17.59Z"/><path class="cls-1" d="M598.37,31.74q5,0,6.8,2.3a4.1,4.1,0,0,1,1.15,2.33q0,.9-2.81,2.3l-1.31.67a1.34,1.34,0,0,1-.53.17c-.54,0-.84-.35-.9-1.05A5.17,5.17,0,0,0,599,35a5,5,0,0,0-3.51-1.45,5.22,5.22,0,0,0-4.27,2.21,8.66,8.66,0,0,0-1.72,5.49,13.19,13.19,0,0,0,2.54,8.35,7.86,7.86,0,0,0,6.48,3.26,13.1,13.1,0,0,0,7-2.29l.39-.17c.34,0,.51.14.51.47q0,1-2.32,2.48a15.31,15.31,0,0,1-8.8,2.86,12,12,0,0,1-8.5-3.15,10.45,10.45,0,0,1-3.37-8,12.29,12.29,0,0,1,4.22-9.54A15.33,15.33,0,0,1,598.37,31.74Z"/><path class="cls-1" d="M624,42a8.7,8.7,0,0,0,.34-2.18,6.86,6.86,0,0,0-1.48-4.56,4.74,4.74,0,0,0-3.8-1.77q-3,0-3,2.2a5.08,5.08,0,0,0,.06.8l.09.52q0,1.88-4.79,1.88-1.25,0-1.18-1a2,2,0,0,1,.16-.62c.06-.2.12-.44.18-.72a4.21,4.21,0,0,1,1.88-2.75,14.17,14.17,0,0,1,7.91-2.13q5.34,0,8,2.25,2,1.71,2,5.95c0,1.42-.06,3.21-.18,5.36q-.19,3.7-.19,4.94,0,2.89,2.53,2.89a3.36,3.36,0,0,0,1.32-.2,2.27,2.27,0,0,1,.71-.2c.29,0,.43.13.43.4q0,.72-1.2,1.35l-1.2.55-1.05.55a5.65,5.65,0,0,1-2.44.53q-2.72,0-4.57-3.19-5.75,3.35-9.54,3.36A5.79,5.79,0,0,1,611,54.9a5,5,0,0,1-1.48-3.84,6.78,6.78,0,0,1,4.25-6.5Q616.36,43.35,624,42Zm-.63,1.64a7.28,7.28,0,0,0-5.06,1.72,5.3,5.3,0,0,0-2.41,4.14q0,3.71,3.27,3.71a6.93,6.93,0,0,0,3.54-.87,2.4,2.4,0,0,0,1.14-1.55,15.07,15.07,0,0,0,.31-3.63l0-2.17v-.59l-.19-.62A1.36,1.36,0,0,0,623.41,43.69Z"/><path class="cls-1" d="M646.13,35.29V49a5.53,5.53,0,0,0,.82,3.48,3.63,3.63,0,0,0,2.91,1A8,8,0,0,0,652,53a6.22,6.22,0,0,0,1.88-.82,1,1,0,0,1,.48-.25c.24,0,.39.2.45.59l.06.29-.37.5a12,12,0,0,1-7.93,2.86q-3.48,0-5.12-1.43a5.58,5.58,0,0,1-1.63-4.43V35.29h-1.88c-1,0-1.48-.25-1.48-.76q0-.47.78-1a27.38,27.38,0,0,0,3.83-3.13,25.46,25.46,0,0,0,3.33-3.53q1-1.38,1.44-1.36c.17,0,.26.16.28.42v6.53h4.47a3.21,3.21,0,0,0,1.76-.37l.8-.49a1.22,1.22,0,0,1,.56-.2c.35,0,.52.14.5.46a2.1,2.1,0,0,1-.22.64,5.17,5.17,0,0,0-.37,1.27,1.64,1.64,0,0,1-1.7,1.47Z"/><path class="cls-1" d="M667,32.89V48.82q0,2.87.95,4t3.52,1.27q1,.06,1,.65t-2.45.74q-.31,0-1.34-.09l-2.33-.23q-1.92-.17-2.55-.17a35,35,0,0,0-4.44.38,7.06,7.06,0,0,1-1.06.11q-.65,0-.65-.56a.65.65,0,0,1,.4-.59l1-.47a2.58,2.58,0,0,0,1.15-1.45,6.25,6.25,0,0,0,.47-2.4l0-1.17V39.36a6.33,6.33,0,0,0-.51-3,2,2,0,0,0-1.83-.84h-.71a1.08,1.08,0,0,1-.8-.23.66.66,0,0,1-.09-.4q0-.71,1.9-1.09A19.89,19.89,0,0,0,666.07,31a1.2,1.2,0,0,1,.53-.2c.29,0,.43.2.43.53l0,.25C667,31.79,667,32.22,667,32.89Zm-3.34-15.3q.64,0,2.3,1.91L667.21,21a1.74,1.74,0,0,1,.49,1c0,.45-.54,1.3-1.69,2.55s-1.93,1.88-2.36,1.88a1.25,1.25,0,0,1-.83-.34l-1.44-1.6L660,23.09a1.67,1.67,0,0,1-.52-1q0-.56,1.81-2.55T663.63,17.59Z"/><path class="cls-1" d="M688.78,31.74a14,14,0,0,1,9.65,3.36,10.91,10.91,0,0,1,3.8,8.55,11.4,11.4,0,0,1-4.13,9,15.09,15.09,0,0,1-10.28,3.6,14.21,14.21,0,0,1-9.64-3.33,10.62,10.62,0,0,1-3.85-8.38,11.61,11.61,0,0,1,4.22-9A14.91,14.91,0,0,1,688.78,31.74Zm-1.62,1.55a5.71,5.71,0,0,0-4.76,2.29,9.86,9.86,0,0,0-1.76,6.17,15.2,15.2,0,0,0,2.72,9.1q2.72,3.8,6.56,3.8a6,6,0,0,0,4.75-2.16,8.29,8.29,0,0,0,1.84-5.57,16.63,16.63,0,0,0-2.72-9.65Q691.06,33.29,687.16,33.29Z"/><path class="cls-1" d="M734.62,43.64v5.68a9.34,9.34,0,0,0,.21,2.48,2.67,2.67,0,0,0,1,1.25,5.65,5.65,0,0,0,2.84,1q1,.11,1,.69,0,.87-2.2.87a11,11,0,0,1-1.33-.12l-2-.23q-1.37-.14-2.14-.14a24.52,24.52,0,0,0-4.71.36,7,7,0,0,1-1.24.13q-.68,0-.68-.61c0-.3.24-.53.72-.7a2.89,2.89,0,0,0,1.84-1.32,7.09,7.09,0,0,0,.47-3V43.26a9.93,9.93,0,0,0-1.67-6.06A5.37,5.37,0,0,0,722.1,35a6.37,6.37,0,0,0-4.15,1.29,4.1,4.1,0,0,0-1.58,3.34v9.3a5.46,5.46,0,0,0,1.07,3.75A5.25,5.25,0,0,0,721.07,54c.58.06.87.28.87.66,0,.54-.36.81-1.09.81s-1.51,0-2.46-.13q-3.52-.36-4.86-.36a31.09,31.09,0,0,0-4.17.33,12.52,12.52,0,0,1-1.53.16c-.52,0-.78-.19-.78-.57s.18-.45.53-.57a4.08,4.08,0,0,0,2-1.17,4.39,4.39,0,0,0,.44-2.32l0-.93V40l0-1.1a6.11,6.11,0,0,0-.45-2.8,1.75,1.75,0,0,0-1.65-.77h-1.42a.6.6,0,0,1-.46-.17.54.54,0,0,1-.16-.42.75.75,0,0,1,.47-.74,21.34,21.34,0,0,1,2.75-.71,20.08,20.08,0,0,0,6.52-2.45.63.63,0,0,1,.38-.17q.35,0,.35.53l-.09,1.4,0,1.6.19,1.07a.48.48,0,0,0,.4.37c.16,0,.49-.23,1-.76a9.56,9.56,0,0,1,7.47-3.15q5,0,7.17,2.76T734.62,43.64Z"/><path class="cls-1" d="M751.85,31.74a18.66,18.66,0,0,1,4.6.64q1.27.34,1.36,1.09l.06,1.23.15,1.76.06,1a1.14,1.14,0,0,1,.06.33c0,.36-.22.53-.67.53s-.89-.61-1.66-1.84q-2.17-3.56-5.46-3.56a4.42,4.42,0,0,0-2.84.95,2.78,2.78,0,0,0-1.19,2.23q0,2.33,3.61,3.7l2.13.78a29.93,29.93,0,0,1,3.7,1.62,7.26,7.26,0,0,1,1.88,1.64,6.8,6.8,0,0,1,1.51,4.49,7.42,7.42,0,0,1-2.45,5.62,8.4,8.4,0,0,1-6,2.3,22.89,22.89,0,0,1-4.68-.59l-2.14-.47-1.39-.2a.72.72,0,0,1-.68-.79c0-.15,0-.38,0-.7a8.65,8.65,0,0,0,.06-1.1l-.09-3.06,0-1.38a1.38,1.38,0,0,1,.14-.8c.09-.1.34-.16.73-.16s.56.25.68.75a12.49,12.49,0,0,0,2,4.21,6.19,6.19,0,0,0,5.31,2.9,4.66,4.66,0,0,0,3.1-1,3.28,3.28,0,0,0,1.24-2.62,3.47,3.47,0,0,0-1.19-2.77,15.55,15.55,0,0,0-4.55-2.22,14.74,14.74,0,0,1-5.55-3,5.83,5.83,0,0,1-1.55-4.27,6.16,6.16,0,0,1,2.59-5.22A11.5,11.5,0,0,1,751.85,31.74Z"/><path class="cls-2" d="M99.92,21.21,0,60.13V36.82Zm50.82-6.63L49.9,53.86,150.74,38.1ZM0,74.08v.71H150.74V50.52ZM150.74.84V0H0V24.4Z"/></g></g></svg>